<?xml version="1.0" encoding="UTF-8"?><svg id="a" xmlns="http://www.w3.org/2000/svg" viewBox="0 0 540 100.40824"><path d="M241.1671,72.1613v-19.96559c0-7.65682-4.65998-12.6462-12.30877-12.6462-4.01722,0-8.31565,1.33372-11.31249,5.62411-2.32998-3.6637-5.62411-5.62411-10.64563-5.62411-3.79232-.16391-7.41375,1.58646-9.64133,4.65997v-4.01722h-6.3231v31.94494h6.3231v-18.27835c0-5.62411,3.32626-8.31565,7.98623-8.31565s7.31937,2.99685,7.31937,8.31565v18.30245h6.3231v-18.30245c0-5.62411,3.32626-8.31565,7.98623-8.31565s7.31937,2.99685,7.31937,8.31565v18.30245h6.9739ZM344.98813,40.54577h-11.64994v-9.64133h-6.30704v9.64133h-6.65251v5.62411h6.65251v15.00833c0,7.31936,2.6594,11.64994,10.64563,11.64994,3.02559-.06309,5.9902-.86283,8.63702-2.32998l-2.00057-5.62411c-1.79515,1.12205-3.87704,1.69974-5.99369,1.66313-3.32627,0-4.98938-2.00057-4.98938-5.32684v-15.29758h11.64994v-5.32684l.00802-.04016ZM404.21802,39.54951c-3.50352-.07804-6.79002,1.69182-8.65308,4.65997v-4.01722h-6.3231v31.94494h6.3231v-17.94092c0-5.32684,2.6594-8.65308,6.98997-8.65308,1.46132.05929,2.91131.28298,4.32253.66685l2.00057-5.99369c-1.52573-.38463-3.0876-.60815-4.65997-.66685h-.00002ZM314.70633,42.87578c-3.32627-2.32998-7.98623-3.32627-12.97561-3.32627-7.98623,0-12.97561,3.6637-12.97561,9.9868,0,5.32684,3.6637,8.31565,10.64563,9.31995l3.32627.32941c3.6637.66685,5.99369,2.00057,5.99369,3.6637,0,2.32998-2.6594,4.01722-7.65682,4.01722-3.81587.07851-7.55328-1.08926-10.64563-3.32627l-3.32627,4.98938c4.65997,3.32627,10.31622,4.01722,13.65855,4.01722,9.31995,0,14.30933-4.32253,14.30933-10.31622,0-5.62411-4.01722-8.31565-10.98309-9.31995l-3.32627-.32941c-2.99685-.32941-5.62411-1.33372-5.62411-3.32627,0-2.32998,2.6594-4.01722,6.3231-4.01722,4.01722,0,7.98623,1.66313,9.9868,2.6594l3.27005-5.02148ZM411.20799,56.18885c0,9.64133,6.3231,16.63932,16.63932,16.63932,4.65997,0,7.98623-.99626,11.31248-3.6637l-3.32627-4.98938c-2.35509,1.90727-5.2853,2.96329-8.31565,2.99685-5.62411,0-9.9868-4.32253-9.9868-10.64563s4.30647-10.61354,9.98683-10.61354c3.03035.03357,5.96056,1.08958,8.31565,2.99685l3.32627-4.98938c-3.32627-2.6594-6.65251-3.6637-11.31248-3.6637-9.9868-.66685-16.63932,6.3231-16.63932,15.97247h0l-.00002-.04016ZM366.61685,39.54953c-9.31995,0-15.64305,6.65251-15.64305,16.63932s6.65251,16.63932,16.30188,16.63932c4.69434.09916,9.27857-1.42797,12.97561-4.32253l-3.32627-4.65997c-2.67377,2.07187-5.93859,3.23709-9.31995,3.32627-4.32253,0-8.9825-2.6594-9.64133-8.31565h23.62929v-2.6594c0-9.9868-5.99369-16.63932-14.97618-16.63932h0v-.00804ZM366.28744,45.54322c4.65997,0,7.98623,2.99685,8.31565,7.98623h-17.29817c.99626-4.65997,4.01722-7.98623,8.9825-7.98623h.00002ZM280.10199,56.18883v-15.97247h-6.3231v4.01722c-2.32998-2.99685-5.62411-4.65997-10.31622-4.65997-8.9825,0-15.64305,6.98997-15.64305,16.63932s6.65251,16.63932,15.64305,16.63932c4.65998,0,7.98623-1.66313,10.31622-4.65997v4.01722h6.3231v-16.02067ZM254.48016,56.18883c0-5.99369,3.6637-10.64563,9.98681-10.64563,5.99369,0,9.64133,4.65997,9.64133,10.64563,0,6.3231-4.01722,10.64563-9.64133,10.64563-6.3231.32941-9.9868-4.65997-9.9868-10.64563h-.00001ZM500.39827,39.54951c-3.50354-.07807-6.79004,1.69182-8.65311,4.65997v-4.01722h-6.3231v31.94494h6.31511v-17.94092c0-5.32684,2.6594-8.65308,6.98997-8.65308,1.46129.05929,2.91131.28298,4.32253.66685l2.00057-5.99369c-1.52573-.38463-3.0876-.60815-4.65997-.66685h.00799ZM475.77269,56.18883v-15.97247h-6.3231v4.01722c-2.32998-2.99685-5.62411-4.65997-10.31622-4.65997-8.9825,0-15.64305,6.98997-15.64305,16.63932s6.65251,16.63932,15.64305,16.63932c4.65997,0,7.98623-1.66313,10.31622-4.65997v4.01722h6.3231v-16.02067ZM450.15085,56.18883c0-5.99369,3.6637-10.64563,9.9868-10.64563,5.99369,0,9.64133,4.65997,9.64133,10.64563,0,6.3231-4.01722,10.64563-9.64133,10.64563-6.3231.32941-9.9868-4.65997-9.9868-10.64563ZM540,56.18883v-28.61867h-6.3231v16.63932c-2.33001-2.99685-5.62411-4.65997-10.31624-4.65997-8.9825,0-15.64303,6.98997-15.64303,16.63932s6.65254,16.63932,15.64303,16.63932c4.65997,0,7.98623-1.66313,10.31624-4.65997v4.01722h6.3231v-15.99657ZM514.37816,56.18883c0-5.99369,3.6637-10.64563,9.9868-10.64563,5.99371,0,9.64133,4.65997,9.64133,10.64563,0,6.3231-4.01722,10.64563-9.64133,10.64563-6.33109.33743-9.9948-4.65195-9.9948-10.64563h.00799Z"/><rect x="57.25564" y="10.74124" width="48.3984" height="78.94205" fill="#ff5f00"/><path d="M62.13858,50.21227c.00336-15.38547,7.0417-29.92484,19.10747-39.47103C59.44681-6.39825,27.88073-2.62077,10.74124,19.17848-6.39825,40.97772-2.62077,72.5438,19.17848,89.68329c18.21171,14.31882,43.85586,14.31882,62.06758,0-12.06577-9.54619-19.10411-24.08556-19.10747-39.47102Z" fill="#eb001b"/><path d="M162.56223,50.21227c.02008,27.70239-22.42087,50.17588-50.12326,50.19596-11.25517.00816-22.18601-3.76931-31.03464-10.72493,21.79925-17.23861,25.49638-48.88504,8.25777-70.68428-2.42278-3.06375-5.19403-5.83499-8.25777-8.25777,21.77917-17.11988,53.31308-13.34278,70.43297,8.43638,6.95562,8.84863,10.73309,19.77948,10.72493,31.03464Z" fill="#f79e1b"/></svg>