<svg width="61" height="50" viewBox="0 0 61 50" fill="none" xmlns="http://www.w3.org/2000/svg">
<path d="M25.4917 19.0526C17.9325 26.4816 13.7122 37.3632 12.5965 46.5553H4.65239C4.48156 46.5547 4.31508 46.5043 4.17577 46.4111C4.03645 46.3178 3.9311 46.1862 3.87416 46.0342C3.83717 45.9328 3.82292 45.8253 3.83232 45.7184C4.31488 39.8816 7.44454 32.1658 13.3608 28.6211C10.7053 28.8289 8.94521 27.3263 7.08192 27.3263C5.06801 27.3263 4.28699 28.5868 3.94111 29.3132C3.88253 29.4395 3.82953 29.5711 3.79048 29.7026C3.73769 29.862 3.63184 30.0011 3.48863 30.0992C3.34543 30.1974 3.1725 30.2493 2.99551 30.2474H0.895126C0.676634 30.2467 0.467343 30.1643 0.313106 30.0183C0.158869 29.8723 0.0722644 29.6746 0.0722656 29.4684V21.0263C0.0722631 20.9239 0.0937306 20.8225 0.135432 20.728C0.177133 20.6335 0.238244 20.5477 0.315245 20.4755C0.392247 20.4034 0.483617 20.3463 0.584096 20.3076C0.684575 20.2689 0.792177 20.2493 0.900705 20.25C1.67894 20.2579 2.79468 20.2632 3.29118 20.2421C4.04989 20.2158 4.80302 20.0947 5.52825 19.8842V22.1316C5.52825 22.4666 5.66931 22.7879 5.9204 23.0248C6.17149 23.2617 6.51205 23.3947 6.86714 23.3947L17.0874 23.4026C17.3764 23.4023 17.6577 23.3136 17.8889 23.15C18.1202 22.9864 18.2891 22.7565 18.3705 22.4947L18.8223 21.0605C18.9723 20.5758 19.1304 20.0932 19.2965 19.6132C19.8907 18.2368 20.906 18.05 21.8237 18.05C22.6661 18.05 23.7762 18.4447 25.0593 18.9026L25.4917 19.0553V19.0526ZM59.9905 23.0974L57.8427 20.2289C57.7763 20.1404 57.6758 20.0798 57.5627 20.0601C57.4496 20.0405 57.3329 20.0633 57.2374 20.1237C53.9906 22.1763 51.7061 20.7974 48.7047 19.8842C47.0275 23.5993 45.8505 27.4981 45.2013 31.4895C45.1455 31.8105 45.0897 32.1368 45.0395 32.4605C44.3503 37.129 44.0722 41.8434 44.2083 46.5553H52.8358C52.8951 46.5557 52.9538 46.5447 53.0085 46.5229C53.0631 46.5011 53.1124 46.4691 53.1534 46.4286C53.1945 46.3882 53.2263 46.3403 53.247 46.2879C53.2676 46.2354 53.2767 46.1796 53.2737 46.1237C53.0917 42.7944 53.2674 39.4564 53.7981 36.1605C54.6126 31.4632 56.4061 26.9342 59.9375 23.6342C60.0129 23.5656 60.0599 23.4739 60.0702 23.3755C60.0804 23.2771 60.0503 23.1785 59.9905 23.0974ZM53.0227 8.02895C53.1621 7.89975 53.2484 7.7281 53.2662 7.54451C53.2841 7.36093 53.2324 7.17731 53.1203 7.02632L49.2012 1.79474C49.0761 1.63 48.8878 1.51779 48.6763 1.48192C48.4649 1.44605 48.2469 1.48935 48.0687 1.60263C39.8736 6.76842 35.0201 0 25.4638 0C20.521 0 16.3231 2.59474 15.7066 2.99474V2.58158C15.707 2.47941 15.686 2.37818 15.6448 2.28369C15.6036 2.1892 15.543 2.10331 15.4666 2.03094C15.3902 1.95857 15.2993 1.90115 15.1993 1.86198C15.0993 1.8228 14.9921 1.80263 14.8838 1.80263H9.80992C9.70162 1.80263 9.59439 1.8228 9.49437 1.86198C9.39436 1.90115 9.30352 1.95857 9.22708 2.03094C9.15063 2.10331 9.09008 2.1892 9.04889 2.28369C9.0077 2.37818 8.98669 2.47941 8.98705 2.58158V19.3526C8.98669 19.4548 9.0077 19.556 9.04889 19.6505C9.09008 19.745 9.15063 19.8309 9.22708 19.9033C9.30352 19.9756 9.39436 20.0331 9.49437 20.0722C9.59439 20.1114 9.70162 20.1316 9.80992 20.1316H14.8838C15.066 20.1324 15.2434 20.076 15.3878 19.9711C15.5323 19.8663 15.6356 19.719 15.6815 19.5526C15.7819 19.1658 15.913 18.7895 16.072 18.4211C16.6466 17.0658 18.1361 14.7842 21.8237 14.7842C25.2379 14.7842 28.4596 17.5342 33.3242 17.1526C22.2449 23.7947 16.5044 38.4158 15.821 49.1816C15.8145 49.2868 15.8309 49.3921 15.8693 49.491C15.9076 49.59 15.967 49.6805 16.0439 49.7569C16.1207 49.8334 16.2134 49.8941 16.3161 49.9355C16.4188 49.9768 16.5294 49.9979 16.6411 49.9974L40.0075 50C40.1185 49.9997 40.2282 49.9783 40.3301 49.937C40.4321 49.8957 40.5241 49.8354 40.6007 49.7597C40.6773 49.684 40.7369 49.5945 40.7759 49.4965C40.8149 49.3985 40.8325 49.294 40.8276 49.1895C40.5682 43.4289 40.716 37.1158 41.7871 30.9605C43.2766 22.3632 46.5597 14.0737 53.0227 8.02895Z" fill="black"/>
</svg>
