<svg width="42" height="50" viewBox="0 0 42 50" fill="none" xmlns="http://www.w3.org/2000/svg">
<path d="M36.5718 35.7824L34.4383 34.8098C34.1552 33.459 34.3652 31.5162 34.587 28.4763C34.8655 24.6282 35.1841 20.2704 34.79 16.0888C33.997 7.67145 29.7845 4.05363 29.7396 4.05363C29.6027 3.86569 26.32 -0.174996 20.597 0.00589523C13.3023 0.23847 9.05436 5.59473 6.85958 11.7262C5.94863 14.2681 5.78343 18.1373 6.01234 21.2735C6.31914 25.535 6.7345 26.8412 7.03658 28.8287C7.45193 31.5303 7.63129 32.7214 7.06726 34.6454L4.57276 35.7871C3.22859 36.4086 2.09083 37.3995 1.29349 38.6431C0.496153 39.8868 0.0724415 41.3313 0.0722656 42.8066V48.0266C0.0722653 48.5496 0.280799 49.0512 0.652059 49.4212C1.02332 49.7912 1.52694 49.9994 2.05229 50H18.9569C18.9569 50 16.1603 42.8865 14.7018 40.1168C13.5454 37.9179 12.0114 35.1951 10.737 32.9704C12.0043 32.3549 12.6368 31.831 13.1607 31.0722C13.7801 30.0882 14.2965 29.0436 14.7018 27.9548C16.3774 29.2633 18.4471 29.9751 20.5758 29.9798C22.6998 29.9626 24.7603 29.2566 26.4451 27.9689C26.8486 29.0542 27.3655 30.0949 27.9814 31.0722C28.5054 31.831 29.1378 32.3549 30.4075 32.9704C29.1307 35.1951 27.5944 37.9179 26.4404 40.1144C24.9819 42.8865 22.1853 50 22.1853 50H39.0899C39.6156 50 40.1199 49.7921 40.4916 49.422C40.8634 49.0519 41.0723 48.55 41.0723 48.0266V42.8066C41.0719 41.3311 40.6478 39.8863 39.85 38.6427C39.0523 37.399 37.914 36.4082 36.5694 35.7871L36.5718 35.7824ZM28.1702 19.5727C28.162 21.3201 27.5401 23.0097 26.412 24.3487C26.1345 24.6846 25.829 24.9966 25.4987 25.2813L25.4751 25.3001C24.1102 26.4686 22.3693 27.1108 20.569 27.1099C18.7687 27.109 17.0285 26.4652 15.6647 25.2954L15.6458 25.279C15.3146 24.9936 15.0083 24.6808 14.7301 24.344C13.6031 23.0063 12.9812 21.3185 12.9719 19.5727V14.6487C15.9082 14.7515 18.8319 14.2185 21.541 13.0864C24.3187 11.9212 26.1973 10.5963 27.474 9.31122C27.9319 10.2979 28.1679 11.3739 28.1679 12.4592V19.5727H28.1702ZM16.0942 38.679V31.8075C16.0946 31.7424 16.112 31.6785 16.1447 31.6221C16.1774 31.5656 16.2242 31.5186 16.2806 31.4857C16.3373 31.4531 16.4016 31.4359 16.4671 31.4359C16.5325 31.4359 16.5968 31.4531 16.6535 31.4857L20.5239 33.7057C20.5809 33.7385 20.6456 33.7557 20.7115 33.7557C20.7774 33.7557 20.8421 33.7385 20.8991 33.7057L24.7695 31.481C24.8264 31.4477 24.8912 31.43 24.9573 31.4299C25.0233 31.4297 25.0882 31.447 25.1454 31.4799C25.2025 31.5129 25.2498 31.5604 25.2824 31.6175C25.3151 31.6747 25.3319 31.7394 25.3312 31.8052V38.6743C25.3315 38.7399 25.3144 38.8043 25.2815 38.8611C25.2487 38.9179 25.2014 38.9651 25.1443 38.9978C25.0873 39.0305 25.0225 39.0476 24.9567 39.0473C24.8909 39.047 24.8263 39.0294 24.7695 38.9962L20.8968 36.7738C20.8401 36.7412 20.7758 36.7241 20.7103 36.7241C20.6449 36.7241 20.5806 36.7412 20.5239 36.7738L16.6535 39.0009C16.6111 39.0253 16.5642 39.0411 16.5156 39.0475C16.467 39.0539 16.4176 39.0506 16.3702 39.038C16.3229 39.0253 16.2785 39.0035 16.2397 38.9738C16.2008 38.944 16.1682 38.9069 16.1438 38.8646C16.111 38.8074 16.0939 38.7449 16.0942 38.679Z" fill="black"/>
</svg>
