<svg width="54" height="50" viewBox="0 0 54 50" fill="none" xmlns="http://www.w3.org/2000/svg">
<path d="M51.0755 37.3223C51.754 36.6688 52.3786 35.9686 52.9493 35.2311C52.5525 37.8218 51.1809 40.3073 48.9152 42.4942C44.0802 47.162 35.7843 49.9697 26.7241 50H26.5698C19.6872 50 13.1866 48.406 8.2438 45.5003C3.61454 42.7789 0.810037 39.1894 0.200149 35.2661C1.96251 37.472 4.15159 39.336 6.64928 40.7578C12.0623 43.9366 19.1336 45.6893 26.5674 45.6893H26.7339C36.5852 45.6543 45.6845 42.5269 51.0755 37.3223ZM0.0727832 26.5327C0.0409417 23.326 1.47871 20.2289 4.22932 17.5706C8.57692 13.3742 15.7241 10.6856 23.7041 10.1605L23.8804 8.90484C22.9451 8.35542 22.2234 7.5302 21.8249 6.55445C21.4264 5.5787 21.373 4.50571 21.6726 3.49838C21.9723 2.49105 22.6087 1.60439 23.4852 0.973005C24.3618 0.341623 25.4306 0 26.5294 0C27.6282 0 28.697 0.341623 29.5736 0.973005C30.4501 1.60439 31.0865 2.49105 31.3862 3.49838C31.6858 4.50571 31.6324 5.5787 31.2339 6.55445C30.8354 7.5302 30.1137 8.35542 29.1784 8.90484L29.3523 10.1558C35.1915 10.5269 40.6291 12.0556 44.9007 14.5669C50.1252 17.6383 53.0277 21.8159 53.0718 26.3297C53.1036 29.5341 51.6658 32.6312 48.9152 35.2895C44.0802 39.9573 35.7843 42.7626 26.7241 42.7929H26.5698C19.6872 42.7929 13.1866 41.1989 8.2438 38.2955C3.01935 35.2241 0.116871 31.0465 0.0727832 26.5327ZM3.45288 26.4324C3.45533 28.8386 4.63592 31.1702 6.83298 33.2077L12.8094 31.1538C14.2055 32.5915 16.214 33.7841 18.6266 34.6127L15.4155 37.9221C19.016 39.04 22.7831 39.5955 26.5723 39.5698V35.8846C27.9341 35.8846 29.2935 35.7819 30.6382 35.5719C31.96 35.3655 33.2594 35.0452 34.5204 34.615L37.7143 37.9058C41.1826 36.8042 44.1733 35.1985 46.3116 33.2077L40.3351 31.1538C41.6872 29.7628 42.471 28.1524 42.471 26.43H49.6892C49.6892 24.0215 48.5086 21.6922 46.314 19.6524L40.3376 21.7062C38.9415 20.2686 36.9281 19.0783 34.5179 18.2474L37.7266 14.9403C35.1594 14.1374 32.5012 13.6281 29.8079 13.4233L31.3338 24.4276C32.6907 24.913 33.4353 25.6132 33.4353 26.4604C33.4353 28.3345 29.8789 29.1887 26.5723 29.1887C23.2656 29.1887 19.7092 28.3345 19.7092 26.4604C19.7092 25.6342 20.4195 24.9433 21.7201 24.4626L22.7194 17.2578C21.3233 17.4632 19.9541 17.7946 18.6266 18.2451L15.4277 14.9543C11.9595 16.0559 8.96881 17.6639 6.83053 19.6547L12.8069 21.7062C11.4549 23.0972 10.6711 24.7076 10.6711 26.43H3.45533L3.45288 26.4324Z" fill="black"/>
</svg>
