<?xml version="1.0" encoding="UTF-8"?><svg id="a" xmlns="http://www.w3.org/2000/svg" viewBox="0 0 540 147.0208"><circle cx="73.5104" cy="73.5104" r="73.5104" fill="#26a17b"/><path d="M81.34599,80.29416v-.01182c-.50819.03545-3.13188.1891-8.97015.1891-4.66827,0-7.94196-.13-9.10016-.1891v.01182c-17.95213-.79183-31.34237-3.91188-31.34237-7.65832,0-3.73462,13.40206-6.86648,31.34237-7.65832v12.2084c1.17002.08273,4.53826.28364,9.18289.28364,5.57828,0,8.36742-.23636,8.88743-.28364v-12.19658c17.91669.80365,31.27146,3.92371,31.27146,7.65832s-13.3666,6.85467-31.27146,7.65832M81.34599,63.72478v-10.92019h24.9959v-16.65211H38.29159v16.65211h24.9959v10.92019c-20.31582.93365-35.58518,4.95191-35.58518,9.77381s15.28118,8.84016,35.58518,9.78563v35.00608h18.07032v-35.00608c20.28035-.93365,35.52608-4.95191,35.52608-9.77381,0-4.81008-15.24573-8.84016-35.52608-9.77381" fill="#fff"/><path d="M209.46326,40.70254v17.65668h17.16031v13.24842h-17.27848v26.86321c0,5.93283,3.2737,8.82834,8.07196,8.82834,2.39913,0,5.17646-.75638,7.44559-1.89094l4.29008,13.11841c-4.40825,1.76094-8.07196,2.51731-12.74022,2.64732-13.4966.50819-22.32494-7.18558-22.32494-22.70313v-26.8632h-11.60565v-13.24842h11.60567v-16.01392l15.37568-1.64276ZM505.31305,57.53193l1.13456,7.18558c4.79826-7.69378,11.22747-8.82834,17.53849-8.82834,6.42921,0,12.61024,2.51732,16.01391,5.92102l-6.93739,13.3666c-3.15553-2.64732-6.05101-4.04189-11.09749-4.04189-8.07195,0-15.51755,4.29007-15.51755,15.76574v32.79604h-15.38753v-62.18837l14.25301.02363ZM467.60056,81.36963c-1.00457-8.07196-7.31559-12.11385-16.14393-12.11385-8.32016,0-15.13936,4.04189-17.4085,12.11385h33.55243ZM433.79995,94.10985c1.00457,7.69378,7.69378,13.24842,18.54306,13.24842,5.67281,0,13.11842-2.15095,16.65211-5.80283l9.83291,9.71472c-6.55919,6.8074-17.27848,10.09291-26.74503,10.09291-21.43858,0-34.1906-13.24842-34.1906-33.17422,0-18.92125,12.87025-32.54785,33.05604-32.54785,20.81221,0,33.81244,12.87023,31.41327,38.46886h-48.56177ZM365.93873,31.41329v34.55698c5.55466-7.18558,12.36203-9.33653,19.42944-9.33653,17.65668,0,25.48045,11.98385,25.48045,30.27872v32.79604h-15.38753v-32.66603c0-11.35747-5.93282-16.14393-14.13479-16.14393-9.08835,0-15.38753,7.69378-15.38753,17.03031v31.79147h-15.38753V31.42511l15.3875-.01183ZM325.07072,39.99344v17.65668h17.16029v13.24842h-17.27848v26.8632c0,5.93283,3.28551,8.82834,8.07195,8.82834,2.39913,0,5.17646-.75638,7.44557-1.89094l4.29008,13.11841c-4.40827,1.76094-8.07195,2.51731-12.74022,2.64732-13.49662.50819-22.32492-7.19741-22.32492-22.70313v-26.8632h-11.60567v-13.24842h11.60567v-16.01392l15.37574-1.64276ZM282.55996,81.36963c-1.00457-8.07196-7.31559-12.11385-16.14393-12.11385-8.32014,0-15.13936,4.04189-17.40849,12.11385h33.55241ZM248.75935,94.10985c1.00457,7.69378,7.69377,13.24842,18.54306,13.24842,5.67283,0,13.11842-2.15095,16.65211-5.80283l9.83291,9.71472c-6.55921,6.8074-17.27848,10.09291-26.74503,10.09291-21.45037,0-34.1906-13.24842-34.1906-33.17422,0-18.92125,12.87023-32.54785,33.04421-32.54785,20.81219,0,33.80061,12.87023,31.41327,38.46886h-48.54994Z" fill="#5b5a5d"/></svg>