<?xml version="1.0" encoding="UTF-8"?><svg id="a" xmlns="http://www.w3.org/2000/svg" viewBox="0 0 540 172.26379"><path d="M351.72162-2.70054c-38.34215,0-72.6065,19.87351-72.6065,56.59135,0,42.1081,60.76917,45.01622,60.76917,66.17027,0,8.90703-10.20755,16.88054-27.64163,16.88054-24.74217,0-43.2346-11.14108-43.2346-11.14108l-7.91243,37.05243s21.30269,9.41081,49.58595,9.41081c41.92,0,74.90594-20.84972,74.90594-58.1946,0-44.49514-61.02163-47.3173-61.02163-66.95135,0-6.97838,8.37891-14.62324,25.76324-14.62324,19.61406,0,35.61728,8.1027,35.61728,8.1027l7.74378-35.78595s-17.41234-7.5119-41.96857-7.5119ZM.92865.00054l-.92865,5.40162s16.13081,2.95189,30.65892,8.84108c18.70594,6.75243,20.03892,10.68378,23.18919,22.89352l34.32973,132.34162h46.02054L205.09568.00054h-45.9146l-45.55567,115.22865-18.58919-97.67351C93.33135,6.3773,84.69567.00054,74.12541.00054,74.12541.00054.92865.00054.92865.00054ZM223.55837.00054l-36.01836,169.4773h43.78324L267.21513,0h-43.65675l-.00002.00054ZM467.75242.00054c-10.55783,0-16.15135,5.65243-20.25622,15.52973l-64.14541,153.94757h45.9146l8.88325-25.65837h55.93674l5.40217,25.65837h40.51243L504.65675.00054h-36.90433ZM473.72377,45.78811l13.60972,63.59621h-36.46161l22.85189-63.59621Z" fill="#1434cb"/></svg>