<svg width="49" height="50" viewBox="0 0 49 50" fill="none" xmlns="http://www.w3.org/2000/svg">
<path d="M41.1948 26.2736H48.8433C48.6505 29.7041 47.7916 33.057 46.3194 36.1258L39.7053 32.1134C40.5248 30.2741 41.0306 28.297 41.1948 26.2736ZM34.236 38.9262L38.0557 45.874C40.7832 43.9823 43.1182 41.5304 44.9199 38.6658L38.3058 34.6534C37.1982 36.3174 35.8206 37.7637 34.236 38.9262ZM31.8179 40.3963C30.0673 41.2589 28.1851 41.7895 26.2585 41.9634V49.9976C29.5243 49.7953 32.7162 48.893 35.6377 47.3464L32.1109 40.9313L31.8179 40.3963ZM11.4168 34.6558L4.80499 38.6658C6.60608 41.5301 8.94023 43.982 11.667 45.874L15.4867 38.9286C13.9019 37.7653 12.5242 36.3206 11.4168 34.6558ZM17.6118 40.9336L14.085 47.3487C17.0065 48.8954 20.1983 49.7976 23.4641 50V41.9657C21.5375 41.7919 19.6554 41.2613 17.9047 40.3986L17.6118 40.9336ZM48.8613 2.27251V23.3406H39.8563C39.6728 23.3406 39.4911 23.3786 39.3216 23.4523C39.1521 23.5261 38.998 23.6342 38.8683 23.7705C38.7386 23.9067 38.6356 24.0685 38.5654 24.2466C38.4952 24.4247 38.4591 24.6155 38.4591 24.8083C38.4582 27.3152 37.8295 29.7777 36.6361 31.9487C35.4427 34.1198 33.7267 35.9228 31.6602 37.1769C29.5938 38.4315 27.2492 39.092 24.8625 39.092C22.4757 39.092 20.1311 38.4315 18.0647 37.1769H18.0625C15.996 35.9228 14.2799 34.1198 13.0866 31.9487C11.8932 29.7777 11.2645 27.3152 11.2636 24.8083C11.2636 24.419 11.1164 24.0457 10.8544 23.7705C10.5923 23.4952 10.237 23.3406 9.8664 23.3406H0.861328V2.27251C0.861328 1.6698 1.08926 1.09178 1.49497 0.665603C1.90068 0.239424 2.45094 0 3.02471 0H10.432C10.7307 0.000480822 11.0261 0.0659307 11.2995 0.192227C11.573 0.318524 11.8185 0.502931 12.0208 0.733832L15.3627 4.53319C15.5652 4.76366 15.8108 4.94762 16.0843 5.07351C16.3577 5.19939 16.6529 5.26447 16.9515 5.26465H32.7712C33.0697 5.26447 33.365 5.19939 33.6384 5.07351C33.9118 4.94762 34.1575 4.76366 34.3599 4.53319L37.7019 0.731465C37.9043 0.500993 38.15 0.317028 38.4234 0.191143C38.6968 0.0652585 38.9921 0.00017929 39.2906 0H46.6979C47.2717 0 47.822 0.239424 48.2277 0.665603C48.6334 1.09178 48.8613 1.6698 48.8613 2.27251ZM17.7109 18.5115L17.7087 10.089C17.7087 9.8881 17.6327 9.69543 17.4974 9.55337C17.3622 9.41131 17.1788 9.3315 16.9875 9.3315H11.5047C11.3136 9.33213 11.1306 9.41214 10.9955 9.55406C10.8603 9.69598 10.7842 9.8883 10.7836 10.089V18.5162C10.7842 18.7174 10.8607 18.91 10.9963 19.052C11.1318 19.194 11.3155 19.2737 11.507 19.2737L16.9853 19.2714C17.1767 19.2708 17.3601 19.1904 17.4953 19.048C17.6305 18.9055 17.7064 18.7126 17.7064 18.5115H17.7109ZM26.2585 11.4809C26.2585 11.0917 26.1113 10.7184 25.8493 10.4431C25.5873 10.1679 25.2319 10.0133 24.8613 10.0133C24.4908 10.0133 24.1354 10.1679 23.8734 10.4431C23.6113 10.7184 23.4641 11.0917 23.4641 11.4809V17.0202C23.4641 17.4094 23.6113 17.7827 23.8734 18.058C24.1354 18.3332 24.4908 18.4878 24.8613 18.4878C25.2319 18.4878 25.5873 18.3332 25.8493 18.058C26.1113 17.7827 26.2585 17.4094 26.2585 17.0202V11.4809ZM38.8061 18.7932L38.8039 10.3707C38.8039 10.2712 38.7852 10.1727 38.749 10.0808C38.7127 9.98891 38.6596 9.90541 38.5927 9.83507C38.5257 9.76473 38.4462 9.70893 38.3587 9.67086C38.2712 9.63279 38.1774 9.6132 38.0827 9.6132H32.6022C32.4113 9.61444 32.2285 9.69465 32.0936 9.83644C31.9586 9.97823 31.8822 10.1702 31.881 10.3707V18.7979C31.8822 18.9989 31.9589 19.1912 32.0944 19.333C32.2298 19.4749 32.4131 19.5548 32.6044 19.5554L38.0827 19.5531C38.1776 19.5531 38.2716 19.5334 38.3592 19.4952C38.4469 19.457 38.5265 19.401 38.5934 19.3304C38.6604 19.2598 38.7135 19.176 38.7496 19.0838C38.7857 18.9916 38.8064 18.8929 38.8061 18.7932ZM8.52781 26.2736H0.879356C1.07316 29.7036 1.93175 33.0556 3.4033 36.1258L10.0196 32.1134C9.19861 30.2744 8.69356 28.2973 8.52781 26.2736Z" fill="black"/>
</svg>
