<svg width="52" height="50" viewBox="0 0 52 50" fill="none" xmlns="http://www.w3.org/2000/svg">
<path d="M49.3367 0H2.29607C1.77103 0 1.2675 0.204482 0.896237 0.568462C0.524978 0.932442 0.316406 1.4261 0.316406 1.94085V48.0591C0.316406 48.5739 0.524978 49.0676 0.896237 49.4315C1.2675 49.7955 1.77103 50 2.29607 50H49.3367C49.8618 50 50.3653 49.7955 50.7366 49.4315C51.1078 49.0676 51.3164 48.5739 51.3164 48.0591V1.94085C51.3164 1.4261 51.1078 0.932442 50.7366 0.568462C50.3653 0.204482 49.8618 0 49.3367 0ZM16.9668 43.9071C16.9668 44.101 16.8884 44.2869 16.7488 44.4242C16.6092 44.5615 16.4198 44.6389 16.2221 44.6396H6.5335C6.43531 44.6399 6.33802 44.6211 6.24724 44.5844C6.15646 44.5477 6.07397 44.4938 6.00454 44.4257C5.9351 44.3576 5.88008 44.2768 5.84265 44.1878C5.80522 44.0988 5.7861 44.0034 5.78642 43.9071V34.4085C5.78642 34.2142 5.86513 34.0279 6.00523 33.8906C6.14534 33.7532 6.33536 33.6761 6.5335 33.6761H16.2244C16.4222 33.6767 16.6116 33.7541 16.7512 33.8914C16.8908 34.0287 16.9692 34.2146 16.9692 34.4085V43.9071H16.9668ZM16.9668 29.7528C16.9668 29.9466 16.8884 30.1326 16.7488 30.2699C16.6092 30.4072 16.4198 30.4846 16.2221 30.4852H6.5335C6.33536 30.4852 6.14534 30.408 6.00523 30.2707C5.86513 30.1333 5.78642 29.947 5.78642 29.7528V20.2495C5.78642 20.0553 5.86513 19.869 6.00523 19.7316C6.14534 19.5943 6.33536 19.5171 6.5335 19.5171H16.2244C16.4222 19.5177 16.6116 19.5951 16.7512 19.7324C16.8908 19.8697 16.9692 20.0557 16.9692 20.2495V29.7505L16.9668 29.7528ZM16.9668 15.5984C16.9668 15.7923 16.8884 15.9782 16.7488 16.1155C16.6092 16.2528 16.4198 16.3303 16.2221 16.3309H6.5335C6.33536 16.3309 6.14534 16.2537 6.00523 16.1163C5.86513 15.979 5.78642 15.7927 5.78642 15.5984V6.09519C5.78642 5.90094 5.86513 5.71464 6.00523 5.57728C6.14534 5.43992 6.33536 5.36275 6.5335 5.36275H16.2244C16.4222 5.36337 16.6116 5.4408 16.7512 5.5781C16.8908 5.71539 16.9692 5.90134 16.9692 6.09519V15.5961L16.9668 15.5984ZM31.4066 43.9071C31.4066 44.1014 31.3279 44.2877 31.1878 44.425C31.0477 44.5624 30.8577 44.6396 30.6595 44.6396H20.9709C20.8727 44.6399 20.7754 44.6211 20.6847 44.5844C20.5939 44.5477 20.5114 44.4938 20.442 44.4257C20.3725 44.3576 20.3175 44.2768 20.2801 44.1878C20.2426 44.0988 20.2235 44.0034 20.2238 43.9071V34.4085C20.2238 34.2142 20.3026 34.0279 20.4427 33.8906C20.5828 33.7532 20.7728 33.6761 20.9709 33.6761H30.6619C30.86 33.6761 31.05 33.7532 31.1901 33.8906C31.3303 34.0279 31.409 34.2142 31.409 34.4085V43.9071H31.4066ZM31.4066 29.7528C31.4066 29.947 31.3279 30.1333 31.1878 30.2707C31.0477 30.408 30.8577 30.4852 30.6595 30.4852H20.9709C20.7732 30.4846 20.5838 30.4072 20.4442 30.2699C20.3046 30.1326 20.2262 29.9466 20.2262 29.7528V20.2495C20.2262 20.0557 20.3046 19.8697 20.4442 19.7324C20.5838 19.5951 20.7732 19.5177 20.9709 19.5171H30.6619C30.86 19.5171 31.05 19.5943 31.1901 19.7316C31.3303 19.869 31.409 20.0553 31.409 20.2495V29.7505L31.4066 29.7528ZM31.4066 15.5984C31.4066 15.7927 31.3279 15.979 31.1878 16.1163C31.0477 16.2537 30.8577 16.3309 30.6595 16.3309H20.9709C20.7728 16.3309 20.5828 16.2537 20.4427 16.1163C20.3026 15.979 20.2238 15.7927 20.2238 15.5984V6.09519C20.2238 5.90094 20.3026 5.71464 20.4427 5.57728C20.5828 5.43992 20.7728 5.36275 20.9709 5.36275H30.6619C30.86 5.36275 31.05 5.43992 31.1901 5.57728C31.3303 5.71464 31.409 5.90094 31.409 6.09519V15.5961L31.4066 15.5984ZM45.844 43.9071C45.844 44.1014 45.7653 44.2877 45.6252 44.425C45.4851 44.5624 45.2951 44.6396 45.0969 44.6396H35.4084C35.2102 44.6396 35.0202 44.5624 34.8801 44.425C34.74 44.2877 34.6613 44.1014 34.6613 43.9071V34.4085C34.6613 34.2146 34.7397 34.0287 34.8793 33.8914C35.0189 33.7541 35.2083 33.6767 35.406 33.6761H45.0969C45.2947 33.6761 45.4843 33.7529 45.6244 33.8898C45.7644 34.0266 45.8434 34.2123 45.844 34.4062V43.9071ZM45.844 29.7528C45.844 29.947 45.7653 30.1333 45.6252 30.2707C45.4851 30.408 45.2951 30.4852 45.0969 30.4852H35.4084C35.2102 30.4852 35.0202 30.408 34.8801 30.2707C34.74 30.1333 34.6613 29.947 34.6613 29.7528V20.2518C34.6613 20.058 34.7397 19.872 34.8793 19.7347C35.0189 19.5975 35.2083 19.52 35.406 19.5194H45.0969C45.2947 19.5194 45.4843 19.5963 45.6244 19.7331C45.7644 19.87 45.8434 20.0557 45.844 20.2495V29.7505V29.7528ZM45.844 15.5984C45.8434 15.7923 45.7644 15.978 45.6244 16.1148C45.4843 16.2517 45.2947 16.3286 45.0969 16.3286H35.4084C35.2106 16.3286 35.021 16.2517 34.8809 16.1148C34.7409 15.978 34.6619 15.7923 34.6613 15.5984V6.09519C34.6613 5.90134 34.7397 5.71539 34.8793 5.5781C35.0189 5.4408 35.2083 5.36337 35.406 5.36275H45.0969C45.2951 5.36275 45.4851 5.43992 45.6252 5.57728C45.7653 5.71464 45.844 5.90094 45.844 6.09519V15.5961V15.5984ZM27.7631 26.7398C27.7143 26.8067 27.6545 26.8653 27.5863 26.9131C24.9091 28.7847 21.9537 25.8919 23.865 23.2648C23.9138 23.1979 23.9735 23.1393 24.0418 23.0915C26.7214 21.22 29.672 24.1151 27.7631 26.7398ZM13.328 12.5832C13.2792 12.65 13.2194 12.7086 13.1512 12.7565C10.4716 14.628 7.51862 11.7329 9.42759 9.10582C9.47734 9.0396 9.53785 8.98183 9.6067 8.93484C12.284 7.06331 15.2393 9.9561 13.328 12.5832ZM13.328 26.7375C13.2792 26.8044 13.2195 26.863 13.1512 26.9108C10.4716 28.7823 7.51862 25.8896 9.42759 23.2625C9.47714 23.1954 9.53766 23.1369 9.6067 23.0892C12.284 21.2177 15.2393 24.1128 13.328 26.7375ZM42.2029 40.8919C42.154 40.9587 42.0943 41.0172 42.0261 41.0652C39.3488 42.9367 36.3958 40.0439 38.3048 37.4191C38.3534 37.3514 38.4131 37.2921 38.4816 37.2435C41.1612 35.372 44.1142 38.2671 42.2052 40.8942L42.2029 40.8919ZM42.2029 12.5832C42.154 12.65 42.0943 12.7086 42.0261 12.7565C39.3488 14.628 36.3958 11.7329 38.3048 9.10582C38.3539 9.03981 38.4136 8.98206 38.4816 8.93484C41.1612 7.06331 44.1142 9.9561 42.2052 12.5832H42.2029Z" fill="black"/>
</svg>
