<svg width="58" height="50" viewBox="0 0 58 50" fill="none" xmlns="http://www.w3.org/2000/svg">
<path d="M55.8264 10.2832L32.5885 2.52887C32.2014 2.39839 31.7857 2.39489 31.3967 2.51882L32.8086 11.2198L34.9386 8.37221C34.9859 8.30842 35.0508 8.26144 35.1244 8.23763C35.1981 8.21382 35.2769 8.21434 35.3502 8.23912L36.4846 8.61579C36.5583 8.63998 36.6232 8.68743 36.6703 8.75169C36.7174 8.81595 36.7445 8.89388 36.7478 8.97487L37.0111 14.7328C37.0139 14.7962 37.0021 14.8594 36.9766 14.9169C36.9512 14.9745 36.9128 15.0248 36.8649 15.0635C36.817 15.1022 36.7609 15.1282 36.7013 15.1392C36.6418 15.1503 36.5806 15.1461 36.5229 15.1271L35.0965 14.65C35.0232 14.6259 34.9586 14.5788 34.9115 14.5151C34.8644 14.4513 34.8371 14.3739 34.8333 14.2934L34.7974 13.4848L34.0411 13.2337L33.5625 13.8715C33.527 13.919 33.4815 13.9573 33.4296 13.9834C33.3778 14.0095 33.3209 14.0228 33.2634 14.0222L34.3594 20.7771C36.0036 19.7491 37.7754 18.9649 39.6245 18.4468C39.9269 18.3588 40.2473 18.366 40.546 18.4673C40.8446 18.5686 41.1083 18.7597 41.3045 19.0168C42.7739 20.9378 46.0358 25.7993 44.6861 29.5484C44.0902 31.2032 42.1253 32.416 40.4573 32.1574C39.6385 32.0357 38.8768 31.6475 38.2795 31.0475C38.2354 31 38.1786 30.9677 38.1166 30.9549C38.0546 30.9421 37.9904 30.9494 37.9325 30.9758C37.8745 31.0023 37.8256 31.0466 37.7923 31.1029C37.7589 31.1592 37.7427 31.2248 37.7458 31.2911C37.7961 32.1398 37.9612 32.9735 38.2292 33.7771C38.2547 33.8534 38.2593 33.9356 38.2424 34.0145C38.2256 34.0934 38.188 34.1658 38.1339 34.2233C38.0797 34.2809 38.0113 34.3213 37.9364 34.3401C37.8614 34.3589 37.783 34.3552 37.7099 34.3295L36.4942 33.9152L37.1643 38.0585C37.3842 39.4235 37.0795 40.8243 36.3169 41.9539C35.5543 43.0836 34.396 43.85 33.0958 44.0851L28.7235 44.8636L43.8197 49.9009C44.3278 50.0703 44.8793 50.0211 45.3527 49.764C45.8262 49.5069 46.183 49.0629 46.3445 48.5298L57.1331 12.9324C57.2946 12.3993 57.2477 11.8206 57.0026 11.3238C56.7576 10.827 56.3345 10.4527 55.8264 10.2832ZM44.8608 39.5225L41.4672 44.0575C41.4199 44.1213 41.355 44.1683 41.2814 44.1921C41.2077 44.2159 41.1289 44.2154 41.0556 44.1906L39.9212 43.8139C39.8475 43.7898 39.7826 43.7423 39.7355 43.678C39.6884 43.6138 39.6613 43.5359 39.658 43.4549L39.3947 37.6969C39.3918 37.6332 39.4036 37.5697 39.4292 37.5119C39.4548 37.4541 39.4933 37.4036 39.5415 37.3649C39.5898 37.3261 39.6463 37.3002 39.7061 37.2894C39.766 37.2785 39.8275 37.2831 39.8853 37.3026L41.3093 37.7798C41.3826 37.8038 41.4472 37.8509 41.4943 37.9146C41.5414 37.9784 41.5687 38.0558 41.5725 38.1363L41.6084 38.9449L42.3671 39.196L42.8457 38.5582C42.893 38.4958 42.9572 38.45 43.0298 38.4267C43.1024 38.4034 43.1801 38.4037 43.2525 38.4276L44.6789 38.9047C44.7658 38.9342 44.8397 38.9957 44.8867 39.0779C44.9338 39.16 44.9509 39.2573 44.9349 39.3517C44.9243 39.4138 44.8997 39.4723 44.8632 39.5225H44.8608ZM34.2398 38.5808L28.2616 1.75545C28.2173 1.48216 28.122 1.22073 27.9813 0.986092C27.8407 0.751454 27.6573 0.548215 27.4417 0.387995C27.2261 0.227775 26.9825 0.113718 26.7249 0.0523449C26.4672 -0.00902825 26.2006 -0.0165137 25.9402 0.0303172L1.90056 4.32682C1.64011 4.37333 1.39095 4.47324 1.16733 4.62086C0.943708 4.76848 0.750012 4.9609 0.597315 5.18712C0.444619 5.41334 0.335917 5.66892 0.277426 5.93925C0.218935 6.20959 0.211801 6.48936 0.256433 6.76259L6.23702 43.5829C6.32656 44.1343 6.62118 44.6258 7.05606 44.9494C7.49095 45.2729 8.03049 45.4019 8.55603 45.3081L32.5956 41.0116C32.8561 40.965 33.1053 40.8651 33.3289 40.7175C33.5525 40.5699 33.7462 40.3775 33.8989 40.1512C34.0516 39.925 34.1603 39.6694 34.2188 39.3991C34.2773 39.1288 34.2844 38.849 34.2398 38.5758V38.5808ZM5.55018 12.1163C5.53426 12.0134 5.5578 11.9081 5.61565 11.8234C5.6735 11.7387 5.76096 11.6815 5.8589 11.6643L7.25652 11.4132C7.35012 11.3964 7.44623 11.4192 7.52382 11.4766C7.60142 11.534 7.65418 11.6214 7.67055 11.7195C7.67484 11.7486 7.68496 11.7764 7.70022 11.801C7.71548 11.8257 7.73554 11.8467 7.75909 11.8626C7.78761 11.8808 7.8205 11.8901 7.85387 11.8893C7.88724 11.8885 7.91969 11.8777 7.94739 11.8581C7.97508 11.8386 7.99686 11.8111 8.01014 11.779C8.02343 11.7468 8.02766 11.7114 8.02234 11.6768L7.47191 8.29688C7.45599 8.19402 7.47953 8.08873 7.53738 8.00403C7.59523 7.91934 7.68269 7.86211 7.78063 7.84488L9.1615 7.59377C9.2104 7.58516 9.26043 7.58679 9.30871 7.59856C9.357 7.61034 9.40259 7.63202 9.44286 7.66236C9.48312 7.69271 9.51727 7.73111 9.54332 7.77537C9.56938 7.81962 9.58683 7.86885 9.59467 7.92021L10.1451 11.2976C10.2464 11.9364 10.1026 12.5913 9.74525 13.1192C9.38787 13.6471 8.8459 14.0051 8.23773 14.1151C7.6293 14.2222 7.0052 14.0724 6.50167 13.6984C5.99814 13.3244 5.65608 12.754 5.55018 12.1163ZM27.4527 32.8404C26.3075 33.2095 25.2601 33.8538 24.3939 34.7222C23.5277 35.5906 22.8665 36.659 22.4629 37.8425C22.4204 37.9647 22.3476 38.0728 22.2522 38.1558C22.1567 38.2387 22.0419 38.2936 21.9196 38.3146L17.7794 39.0529C17.6572 39.0761 17.5312 39.0646 17.4147 39.0196C17.2981 38.9745 17.1952 38.8976 17.1165 38.7968C16.3622 37.82 15.4012 37.0413 14.3098 36.5226C13.2184 36.0038 12.0268 35.7593 10.8296 35.8085C10.469 35.8208 10.112 35.7309 9.79611 35.5481C9.48022 35.3653 9.21716 35.0966 9.03464 34.7701C8.85212 34.4436 8.7569 34.0715 8.75901 33.693C8.76112 33.3145 8.86048 32.9436 9.04663 32.6194L10.8128 29.5308C10.196 27.966 9.88514 26.2872 9.89861 24.5939L7.21823 19.4512C7.16394 19.3475 7.13411 19.2316 7.13125 19.1134C7.12839 18.9951 7.15258 18.8778 7.20179 18.7713C7.251 18.6648 7.3238 18.5723 7.4141 18.5014C7.5044 18.4305 7.60957 18.3834 7.7208 18.3639L24.88 15.2978C24.9906 15.2784 25.104 15.2868 25.2109 15.3225C25.3177 15.3582 25.4149 15.4201 25.4945 15.5031C25.574 15.586 25.6335 15.6877 25.6682 15.7996C25.7028 15.9115 25.7116 16.0304 25.6937 16.1466L24.6167 23.0446L24.6287 23.0571C25.0236 23.5192 25.9545 24.6065 25.7918 26.2136C25.7631 26.4898 25.7009 26.7585 25.6099 27.0172L28.1276 29.2068C28.406 29.4482 28.6173 29.7639 28.7391 30.1207C28.8609 30.4775 28.8887 30.8622 28.8196 31.2341C28.7505 31.6061 28.5871 31.9517 28.3465 32.2344C28.1059 32.5171 27.7971 32.7264 27.4527 32.8404ZM22.3265 26.6028C22.1779 26.7884 22.1018 27.0262 22.1135 27.2683C22.147 27.8408 22.281 28.4033 22.3193 28.9758C22.3383 29.0979 22.3325 29.2229 22.3023 29.3425C22.2722 29.462 22.2183 29.5736 22.1442 29.6698C22.0701 29.7661 21.9775 29.8448 21.8724 29.9009C21.7673 29.957 21.6521 29.9892 21.5343 29.9953C20.3275 30.121 19.1097 30.0644 17.9182 29.8271C16.8173 31.846 13.7852 31.8686 13.7852 31.8686C13.8665 31.6225 13.924 31.3714 13.9622 31.1153C14.1633 29.9074 13.699 28.8151 13.34 27.6424C12.9011 26.2686 12.7612 24.809 12.9308 23.371L21.642 21.8116C21.2543 23.0672 21.6516 24.2399 22.4198 25.1389C23.0277 25.847 22.9654 25.9273 22.3265 26.6028Z" fill="black"/>
</svg>
