<svg width="57" height="50" viewBox="0 0 57 50" fill="none" xmlns="http://www.w3.org/2000/svg">
<path d="M5.36203 5.76356C6.77439 3.96717 8.57117 2.51574 10.6181 1.51772C12.6651 0.519689 14.9093 0.000862725 17.1831 0H31.1849C33.4591 0.00065773 35.7038 0.519378 37.7512 1.51741C39.7986 2.51543 41.5958 3.96697 43.0086 5.76356H5.36203ZM57 14.9605C56.9999 15.5113 56.8637 16.0534 56.6038 16.5379C56.3439 17.0224 55.9684 17.434 55.5113 17.7356V36.2033C55.5114 36.2854 55.4874 36.3657 55.4423 36.4341C55.3972 36.5025 55.3331 36.556 55.2579 36.5877C55.2082 36.6084 55.155 36.6191 55.1012 36.6193H48.368V40.8294C48.3673 41.4374 48.1274 42.0203 47.7009 42.4502C47.2745 42.8802 46.6962 43.122 46.0931 43.1227H2.27488C1.67176 43.122 1.09353 42.8802 0.66706 42.4502C0.240587 42.0203 0.00069126 41.4374 0 40.8294V11.435C0 10.8267 0.239674 10.2434 0.666297 9.81335C1.09292 9.38327 1.67154 9.14165 2.27488 9.14165H46.0931C46.6962 9.14235 47.2745 9.38419 47.7009 9.81412C48.1274 10.244 48.3673 10.827 48.368 11.435V32.9831H51.9044V17.733C51.428 17.4181 51.0409 16.9838 50.7809 16.4728C50.5209 15.9618 50.397 15.3915 50.4212 14.8177C50.4455 14.2439 50.6171 13.6863 50.9192 13.1994C51.2214 12.7125 51.6437 12.313 52.1449 12.04C52.6462 11.7671 53.2091 11.6299 53.7787 11.6421C54.3482 11.6542 54.9049 11.8152 55.3943 12.1093C55.8836 12.4034 56.2888 12.8205 56.5703 13.3198C56.8518 13.8191 56.9998 14.3836 57 14.9579V14.9605ZM14.9212 12.7778H3.6069V33.2359H14.9212V12.7778ZM29.8425 12.7778H18.5255V33.2359H29.8399V12.7778H29.8425ZM44.7611 12.7778H33.4494V33.2359H44.7611V12.7778ZM45.6804 46.5166H2.69016C2.58071 46.5166 2.47575 46.5604 2.39836 46.6384C2.32097 46.7164 2.27749 46.8223 2.27749 46.9326V49.584C2.27749 49.6943 2.32097 49.8001 2.39836 49.8781C2.47575 49.9562 2.58071 50 2.69016 50H45.6804C45.7349 50 45.7887 49.9892 45.839 49.9681C45.8892 49.947 45.9348 49.9161 45.9732 49.8772C46.0115 49.8383 46.0419 49.7921 46.0624 49.7414C46.083 49.6906 46.0935 49.6362 46.0931 49.5814V46.9326C46.0931 46.8777 46.0823 46.8234 46.0614 46.7728C46.0405 46.7221 46.0099 46.6762 45.9713 46.6375C45.9327 46.5988 45.8869 46.5682 45.8366 46.5475C45.7862 46.5267 45.7349 46.5162 45.6804 46.5166ZM42.5855 20.8425C42.3687 20.2791 42.0342 19.7693 41.6047 19.3477C41.1753 18.9261 40.6609 18.6026 40.0964 18.3992C40.0472 18.1736 39.9229 17.9717 39.7444 17.827C39.5658 17.6823 39.3435 17.6034 39.1144 17.6034C38.8852 17.6034 38.663 17.6823 38.4844 17.827C38.3058 17.9717 38.1816 18.1736 38.1323 18.3992C36.6488 18.9231 35.7817 20.1 35.3664 21.6825C35.1427 22.5418 35.1409 23.4446 35.3612 24.3049C35.7713 25.9005 36.641 27.0853 38.1323 27.6145C38.1804 27.8415 38.3043 28.0449 38.4833 28.1908C38.6623 28.3368 38.8855 28.4164 39.1157 28.4164C39.3459 28.4164 39.5691 28.3368 39.7481 28.1908C39.927 28.0449 40.0509 27.8415 40.099 27.6145C40.7494 27.3907 41.3266 26.9984 41.7758 26.4745C42.5959 25.5134 43.0347 24.2838 43.0112 23.02C43.0232 22.272 42.8781 21.53 42.5855 20.8425ZM12.7456 20.8425C12.5288 20.2791 12.1944 19.7693 11.7649 19.3477C11.3354 18.9261 10.821 18.6026 10.2566 18.3992C10.2073 18.1736 10.0831 17.9717 9.9045 17.827C9.72591 17.6823 9.50365 17.6034 9.27451 17.6034C9.04538 17.6034 8.82312 17.6823 8.64453 17.827C8.46594 17.9717 8.34173 18.1736 8.29248 18.3992C6.80897 18.9231 5.94185 20.1 5.52396 21.6825C5.30099 22.542 5.30009 23.4449 5.52135 24.3049C5.92879 25.9005 6.80114 27.0853 8.28986 27.6145C8.33797 27.8415 8.46185 28.0449 8.64082 28.1908C8.81979 28.3368 9.04302 28.4164 9.27321 28.4164C9.5034 28.4164 9.72662 28.3368 9.90559 28.1908C10.0846 28.0449 10.2084 27.8415 10.2566 27.6145C10.9095 27.3907 11.4867 26.9984 11.9359 26.4745C12.7534 25.5134 13.1948 24.2838 13.1713 23.02C13.1834 22.272 13.0383 21.5299 12.7456 20.8425ZM27.6642 20.8425C27.4475 20.2791 27.113 19.7693 26.6835 19.3477C26.254 18.9261 25.7396 18.6026 25.1752 18.3992C25.1259 18.1736 25.0017 17.9717 24.8231 17.827C24.6445 17.6823 24.4223 17.6034 24.1931 17.6034C23.964 17.6034 23.7417 17.6823 23.5631 17.827C23.3846 17.9717 23.2604 18.1736 23.2111 18.3992C21.7276 18.9231 20.8605 20.1 20.4478 21.6825C20.2231 22.5416 20.2204 23.4444 20.44 24.3049C20.85 25.9005 21.7198 27.0853 23.2137 27.6145C23.263 27.8401 23.3872 28.042 23.5658 28.1867C23.7443 28.3314 23.9666 28.4103 24.1957 28.4103C24.4249 28.4103 24.6471 28.3314 24.8257 28.1867C25.0043 28.042 25.1285 27.8401 25.1778 27.6145C25.8281 27.3907 26.4053 26.9984 26.8572 26.4745C27.6747 25.5134 28.1135 24.2838 28.0926 23.02C28.1038 22.2719 27.9578 21.5298 27.6642 20.8425Z" fill="black"/>
</svg>
